<svg width="57" height="57" viewBox="0 0 57 57" fill="none" xmlns="http://www.w3.org/2000/svg">
<g clip-path="url(#clip0_390_10919)">
<path d="M48.6875 14.25C42.4888 15.9125 35.2212 16.625 28.5 16.625C21.7788 16.625 14.5112 15.9125 8.3125 14.25L7.125 19C11.5425 20.1875 16.625 20.9712 21.375 21.375V52.25H26.125V38H30.875V52.25H35.625V21.375C40.375 20.9712 45.4575 20.1875 49.875 19L48.6875 14.25ZM28.5 14.25C31.1125 14.25 33.25 12.1125 33.25 9.5C33.25 6.8875 31.1125 4.75 28.5 4.75C25.8875 4.75 23.75 6.8875 23.75 9.5C23.75 12.1125 25.8875 14.25 28.5 14.25Z" fill="url(#paint0_linear_390_10919)"/>
</g>
<defs>
<linearGradient id="paint0_linear_390_10919" x1="28.5" y1="4.75" x2="28.5" y2="52.25" gradientUnits="userSpaceOnUse">
<stop stop-color="#9135FF"/>
<stop offset="1" stop-color="#6F4CFE"/>
</linearGradient>
<clipPath id="clip0_390_10919">
<rect width="57" height="57" fill="white"/>
</clipPath>
</defs>
</svg>
