<svg width="120" height="120" viewBox="0 0 120 120" fill="none" xmlns="http://www.w3.org/2000/svg">
<rect width="120" height="120" fill="#181621"/>
<path d="M102.027 55.5889C100.292 55.5889 98.5583 56.167 97.5949 56.9377H93.7411C93.5484 53.084 92.585 49.4229 91.0435 45.9545C89.6947 42.6789 87.7678 39.5958 85.2628 36.7055L87.9605 34.0079C89.3093 33.8152 90.6581 33.0445 92.0069 31.6957C94.3192 29.3834 95.0899 26.3004 93.5484 24.9516C92.1996 23.6028 89.1166 24.1808 86.8043 26.4931C85.4555 27.8419 84.6848 29.1907 84.4921 30.5395L81.7945 33.2372C79.0968 30.9249 76.0138 28.998 72.5455 27.4565C69.0771 25.915 65.416 25.1443 61.5623 24.7589V20.9051C62.333 19.749 62.9111 18.2075 62.9111 16.4733C62.9111 13.1976 61.1769 10.5 59.25 10.5C57.1304 10.5 55.5889 13.1976 55.5889 16.4733C55.5889 18.2075 56.167 19.9417 56.9377 20.9051V24.7589C53.084 24.9516 49.4229 25.915 45.9545 27.4565C42.6789 28.8053 39.5959 30.7322 36.7055 33.2372L34.0079 30.5395C33.8152 29.1907 33.0445 27.8419 31.6957 26.4931C29.3834 24.1808 26.3004 23.4101 24.9516 24.9516C23.6028 26.3004 24.1808 29.3834 26.4931 31.6957C27.8419 33.0445 29.1907 33.8152 30.5395 34.0079L33.2372 36.7055C30.9249 39.4032 28.998 42.4862 27.4565 45.9545C25.915 49.4229 25.1443 53.084 24.7589 56.9377H20.9051C19.749 56.167 18.2075 55.5889 16.4733 55.5889C13.1976 55.5889 10.5 57.3231 10.5 59.25C10.5 61.3696 13.1976 62.9111 16.4733 62.9111C18.2075 62.9111 19.9417 62.333 20.9051 61.5623H24.7589C24.9516 65.416 25.915 69.0771 27.4565 72.5455C28.8053 75.8211 30.7322 78.9041 33.2372 81.7945L30.5395 84.4921C29.1907 84.6848 27.8419 85.4555 26.4931 86.8043C24.1808 89.1166 23.4101 92.1996 24.9516 93.5484C26.3004 94.8972 29.3834 94.3192 31.6957 92.0069C33.0445 90.6581 33.8152 89.3093 34.0079 87.9605L36.7055 85.2628C39.4032 87.5751 42.4862 89.502 45.9545 91.0435C49.4229 92.585 53.084 93.3557 56.9377 93.7411V97.5949C56.167 98.751 55.5889 100.292 55.5889 102.027C55.5889 105.302 57.3231 108 59.25 108C61.3696 108 62.9111 105.302 62.9111 102.027C62.9111 100.292 62.333 98.5583 61.5623 97.5949V93.7411C65.416 93.5484 69.0771 92.585 72.5455 91.0435C75.8211 89.6947 78.9041 87.7678 81.7945 85.2628L84.4921 87.9605C84.6848 89.3093 85.4555 90.6581 86.8043 92.0069C89.1166 94.3192 92.1996 95.0899 93.5484 93.5484C94.8972 92.1996 94.3192 89.1166 92.0069 86.8043C90.6581 85.4555 89.3093 84.6848 87.9605 84.4921L85.2628 81.7945C87.5751 79.0968 89.502 76.0138 91.0435 72.5455C92.585 69.0771 93.3557 65.416 93.7411 61.5623H97.5949C98.751 62.333 100.292 62.9111 102.027 62.9111C105.302 62.9111 108 61.1769 108 59.25C108 57.1304 105.302 55.5889 102.027 55.5889ZM59.4416 88.925C43.0631 88.925 29.7677 75.6296 29.7677 59.2511C29.7677 42.8726 43.0631 29.5772 59.4416 29.5772C75.82 29.5772 89.1155 42.8726 89.1155 59.2511C89.1155 75.6296 75.82 88.925 59.4416 88.925Z" fill="white"/>
<path d="M77.1688 43.2569L79.4811 45.5692L81.6006 43.4496L75.0493 36.8982L72.9297 39.0178L75.2419 41.33C69.8467 42.1008 65.6076 46.5326 65.0295 52.1205C63.6807 50.9644 61.9465 50.1937 60.0196 50.001C63.488 45.7619 63.6807 39.5958 60.405 35.164H63.8734V32.2737H54.6244V35.164H58.0927C54.817 39.5958 55.0097 45.7619 58.4781 50.001C56.5512 50.1937 54.817 50.9644 53.4682 52.1205C52.8902 46.5326 48.651 42.1008 43.2558 41.33L45.568 39.0178L43.4485 36.8982L36.8971 43.4496L39.0167 45.5692L41.3289 43.2569C42.0997 48.6522 46.5315 52.8913 52.1194 53.4694C50.9633 54.8182 50.1925 56.5524 49.9999 58.4792C45.7607 55.0109 39.5947 54.8182 35.1629 58.0939V54.6255H32.2726V63.8745H35.1629V60.4061C39.5947 63.6818 45.7607 63.4891 49.9999 60.0207C50.1925 61.9476 50.9633 63.6818 52.1194 65.0306C46.5315 65.6087 42.0997 69.8478 41.3289 75.2431L39.0167 72.9308L36.8971 75.0504L43.4485 81.6018L45.568 79.4822L43.2558 77.17C48.651 76.3992 52.8902 71.9674 53.4682 66.3794C54.817 67.5356 56.5512 68.3063 58.4781 68.499C55.0097 72.7381 54.817 78.9041 58.0927 83.336H54.6244V86.2263H63.8734V83.336H60.405C63.6807 78.9041 63.488 72.7381 60.0196 68.499C61.9465 68.3063 63.6807 67.5356 65.0295 66.3794C65.6076 71.9674 69.8467 76.3992 75.2419 77.17L72.9297 79.4822L75.0493 81.6018L81.6006 75.0504L79.4811 72.9308L77.1688 75.2431C76.3981 69.8478 71.9663 65.6087 66.3783 65.0306C67.5344 63.6818 68.3052 61.9476 68.4979 60.0207C72.737 63.4891 78.903 63.6818 83.3348 60.4061V63.8745H86.2251V54.6255H83.3348V58.0939C78.903 54.8182 72.737 55.0109 68.4979 58.4792C68.3052 56.5524 67.5344 54.8182 66.3783 53.4694C71.9663 52.8913 76.3981 48.6522 77.1688 43.2569Z" fill="white"/>
</svg>
