<svg width="60" height="60" viewBox="0 0 60 60" fill="none" xmlns="http://www.w3.org/2000/svg">
<path d="M56.3241 27.747C55.2569 27.747 54.1897 28.1028 53.5968 28.5771H51.2253C51.1067 26.2055 50.5138 23.9526 49.5652 21.8182C48.7352 19.8024 47.5494 17.9051 46.0079 16.1265L47.668 14.4664C48.498 14.3478 49.3281 13.8735 50.1581 13.0435C51.581 11.6206 52.0553 9.72332 51.1067 8.89328C50.2767 8.06324 48.3794 8.41897 46.9565 9.8419C46.1265 10.6719 45.6522 11.502 45.5336 12.332L43.8735 13.9921C42.2134 12.5692 40.3162 11.3834 38.1818 10.4348C36.0474 9.48617 33.7945 9.01186 31.4229 8.7747V6.40316C31.8972 5.6917 32.253 4.74308 32.253 3.67589C32.253 1.66008 31.1858 0 30 0C28.6957 0 27.747 1.66008 27.747 3.67589C27.747 4.74308 28.1028 5.81028 28.5771 6.40316V8.7747C26.2055 8.89328 23.9526 9.48617 21.8182 10.4348C19.8024 11.2648 17.9051 12.4506 16.1265 13.9921L14.4664 12.332C14.3478 11.502 13.8735 10.6719 13.0435 9.8419C11.6206 8.41897 9.72332 7.94466 8.89328 8.89328C8.06324 9.72332 8.41897 11.6206 9.8419 13.0435C10.6719 13.8735 11.502 14.3478 12.332 14.4664L13.9921 16.1265C12.5692 17.7866 11.3834 19.6838 10.4348 21.8182C9.48617 23.9526 9.01186 26.2055 8.7747 28.5771H6.40316C5.6917 28.1028 4.74308 27.747 3.67589 27.747C1.66008 27.747 0 28.8142 0 30C0 31.3043 1.66008 32.253 3.67589 32.253C4.74308 32.253 5.81028 31.8972 6.40316 31.4229H8.7747C8.89328 33.7945 9.48617 36.0474 10.4348 38.1818C11.2648 40.1976 12.4506 42.0949 13.9921 43.8735L12.332 45.5336C11.502 45.6522 10.6719 46.1265 9.8419 46.9565C8.41897 48.3794 7.94467 50.2767 8.89328 51.1067C9.72332 51.9368 11.6206 51.581 13.0435 50.1581C13.8735 49.3281 14.3478 48.498 14.4664 47.668L16.1265 46.0079C17.7866 47.4308 19.6838 48.6166 21.8182 49.5652C23.9526 50.5138 26.2055 50.9881 28.5771 51.2253V53.5968C28.1028 54.3083 27.747 55.2569 27.747 56.3241C27.747 58.3399 28.8142 60 30 60C31.3043 60 32.253 58.3399 32.253 56.3241C32.253 55.2569 31.8972 54.1897 31.4229 53.5968V51.2253C33.7945 51.1067 36.0474 50.5138 38.1818 49.5652C40.1976 48.7352 42.0949 47.5494 43.8735 46.0079L45.5336 47.668C45.6522 48.498 46.1265 49.3281 46.9565 50.1581C48.3794 51.581 50.2767 52.0553 51.1067 51.1067C51.9368 50.2767 51.581 48.3794 50.1581 46.9565C49.3281 46.1265 48.498 45.6522 47.668 45.5336L46.0079 43.8735C47.4308 42.2134 48.6166 40.3162 49.5652 38.1818C50.5138 36.0474 50.9881 33.7945 51.2253 31.4229H53.5968C54.3083 31.8972 55.2569 32.253 56.3241 32.253C58.3399 32.253 60 31.1858 60 30C60 28.6957 58.3399 27.747 56.3241 27.747ZM30.1179 48.2615C20.0388 48.2615 11.857 40.0797 11.857 30.0007C11.857 19.9216 20.0388 11.7398 30.1179 11.7398C40.197 11.7398 48.3788 19.9216 48.3788 30.0007C48.3788 40.0797 40.197 48.2615 30.1179 48.2615Z" fill="white"/>
<path d="M41.027 20.1581L42.4499 21.581L43.7542 20.2767L39.7226 16.2451L38.4183 17.5494L39.8412 18.9723C36.521 19.4466 33.9123 22.1739 33.5566 25.6127C32.7266 24.9012 31.6594 24.4269 30.4736 24.3083C32.608 21.6996 32.7266 17.9051 30.7108 15.1779H32.8451V13.3992H27.1534V15.1779H29.2878C27.272 17.9051 27.3906 21.6996 29.525 24.3083C28.3392 24.4269 27.272 24.9012 26.442 25.6127C26.0862 22.1739 23.4776 19.4466 20.1574 18.9723L21.5803 17.5494L20.276 16.2451L16.2443 20.2767L17.5487 21.581L18.9716 20.1581C19.4459 23.4783 22.1732 26.087 25.6119 26.4427C24.9005 27.2727 24.4262 28.3399 24.3076 29.5257C21.6989 27.3913 17.9044 27.2727 15.1772 29.2885V27.1542H13.3985V32.8459H15.1772V30.7115C17.9044 32.7273 21.6989 32.6087 24.3076 30.4743C24.4262 31.6601 24.9005 32.7273 25.6119 33.5573C22.1732 33.913 19.4459 36.5217 18.9716 39.8419L17.5487 38.419L16.2443 39.7233L20.276 43.7549L21.5803 42.4506L20.1574 41.0277C23.4776 40.5534 26.0862 37.8261 26.442 34.3874C27.272 35.0988 28.3392 35.5731 29.525 35.6917C27.3906 38.3004 27.272 42.0949 29.2878 44.8221H27.1534V46.6008H32.8451V44.8221H30.7108C32.7266 42.0949 32.608 38.3004 30.4736 35.6917C31.6594 35.5731 32.7266 35.0988 33.5566 34.3874C33.9123 37.8261 36.521 40.5534 39.8412 41.0277L38.4183 42.4506L39.7226 43.7549L43.7542 39.7233L42.4499 38.419L41.027 39.8419C40.5526 36.5217 37.8254 33.913 34.3866 33.5573C35.0981 32.7273 35.5724 31.6601 35.691 30.4743C38.2997 32.6087 42.0942 32.7273 44.8214 30.7115V32.8459H46.6001V27.1542H44.8214V29.2885C42.0942 27.2727 38.2997 27.3913 35.691 29.5257C35.5724 28.3399 35.0981 27.2727 34.3866 26.4427C37.8254 26.087 40.5526 23.4783 41.027 20.1581Z" fill="white"/>
</svg>
